PathFileType	4	(X/Y/Z)	/Users/niels/Desktop/University/Third Semester/Perception and Action/Exam/Gymnastics Motion Tracking/Code for Gym Tracking/Analyzed Data/Webcam_Backflip/id3_2_trajectory_Sports2D/id3_2_trajectory_Sports2D_px_person00.trc
DataRate	CameraRate	NumFrames	NumMarkers	Units	OrigDataRate	OrigDataStartFrame	OrigNumFrames
29.714285714285715	29.714285714285715	7	22	m	29.714285714285715	13	105
Frame#	Time	Hip			RHip			RKnee			RAnkle			RBigToe			RSmallToe			RHeel			LHip			LKnee			LAnkle			LBigToe			LSmallToe			LHeel			Neck			Head			Nose			RShoulder			RElbow			RWrist			LShoulder			LElbow			LWrist		
		X1	Y1	Z1	X2	Y2	Z2	X3	Y3	Z3	X4	Y4	Z4	X5	Y5	Z5	X6	Y6	Z6	X7	Y7	Z7	X8	Y8	Z8	X9	Y9	Z9	X10	Y10	Z10	X11	Y11	Z11	X12	Y12	Z12	X13	Y13	Z13	X14	Y14	Z14	X15	Y15	Z15	X16	Y16	Z16	X17	Y17	Z17	X18	Y18	Z18	X19	Y19	Z19	X20	Y20	Z20	X21	Y21	Z21	X22	Y22	Z22
13	0.4375	0.8799797586311249	-0.5484526452111677	0.0	0.8768670194210558	-0.5557406656161082	0.0	0.7863933720944047	-0.6348568508885846	0.0	0.6942382740773321	-0.6986149033500859	0.0	0.6970803869927383	-0.7509188599827679	0.0	0.687112728279527	-0.7427839189198122	0.0	0.6796567053571333	-0.6980673400174812	0.0	0.8822559592986151	-0.5416148891793372	0.0	0.7895233003574956	-0.6235104032393484	0.0	0.7024701243902652	-0.6832561716782732	0.0	0.7089957578305647	-0.7340641593510251	0.0	0.7122679224595521	-0.7183395278660878	0.0	0.6916822749308749	-0.6836032476509047	0.0	1.039856050291555	-0.5846193720411555	0.0	1.1297829180771257	-0.5864188121167819	0.0	1.0889004293708706	-0.6131514588172002	0.0	1.015085454661064	-0.5862357999072567	0.0	0.9765418702395952	-0.6480063303093049	0.0	0.9612475531888865	-0.7036393759382698	0.0	1.032169768414882	-0.572390173057947	0.0	0.9917878405484314	-0.63743370600166	0.0	0.9740151999172095	-0.6920573441167932	0.0
14	0.47115384615384615	0.8491781838229747	-0.5882768667761096	0.0	0.8460212785482741	-0.5961417424114536	0.0	0.773917424223122	-0.6987557872581415	0.0	0.6930365673252933	-0.7833437472407573	0.0	0.7075235559812992	-0.8285023047405905	0.0	0.698173181139118	-0.8218813284292232	0.0	0.6784763391506348	-0.7851698546214276	0.0	0.8507800264285412	-0.582501730884827	0.0	0.7772137715356969	-0.6864396092887532	0.0	0.7001258963740197	-0.768216808420339	0.0	0.7224359689599081	-0.8120663061370751	0.0	0.725623115180978	-0.7898344079604409	0.0	0.6902054276548518	-0.7691696790714557	0.0	1.0107917157849848	-0.5875918296302894	0.0	1.101055248905167	-0.5714393710244876	0.0	1.0646148699071118	-0.6058745586480897	0.0	0.9886645289396117	-0.593288076187474	0.0	0.9791348707502239	-0.6647323140537277	0.0	0.9927618628179624	-0.7186445884004641	0.0	1.0026440779057937	-0.5791974878226371	0.0	0.990267360679653	-0.6519368019776081	0.0	1.0010862587239673	-0.7062424960492453	0.0
15	0.5048076923076923	0.8218270814952479	-0.6322305836702196	0.0	0.8185182510239762	-0.6399491134405892	0.0	0.763827953983977	-0.7583298373367696	0.0	0.6936914920325318	-0.8544308091520141	0.0	0.7151793328944617	-0.8880401539756952	0.0	0.708917718638659	-0.8826553445606148	0.0	0.6798133807025372	-0.8562706152674638	0.0	0.823072511047774	-0.6279368086323877	0.0	0.7683871473547208	-0.7453146515747815	0.0	0.7003039835377068	-0.8406355587988027	0.0	0.7351654307517056	-0.8715202807700009	0.0	0.7401202658017236	-0.8443798666156018	0.0	0.6916646323567932	-0.83928178098324	0.0	0.9780655055893154	-0.5942850629228607	0.0	1.066358629511875	-0.5621407324782521	0.0	1.0347951494586176	-0.6025660063733855	0.0	0.9597306192740639	-0.6025690447396479	0.0	0.9803466144798694	-0.6712538578672753	0.0	1.0198799700088672	-0.7120643222739945	0.0	0.969711241525037	-0.5890126510742173	0.0	0.9874424213359153	-0.6567586070420842	0.0	1.023746569435038	-0.7006061447330747	0.0
16	0.5384615384615384	0.7996272663345627	-0.6757359296777723	0.0	0.7961862801228684	-0.6824963195588075	0.0	0.7547489222583226	-0.8100338329746077	0.0	0.6932097938240965	-0.9097409127358747	0.0	0.7173656926730858	-0.9300539079276305	0.0	0.7159067345879516	-0.9250409419648737	0.0	0.6799653074847246	-0.909835110653072	0.0	0.8008547569432596	-0.6728524038974633	0.0	0.7613573870238135	-0.7966094385173165	0.0	0.6997993582528911	-0.8978600200939726	0.0	0.743843248263324	-0.9123913853785061	0.0	0.7508172395962299	-0.882903972667241	0.0	0.6921603151682997	-0.891449009033066	0.0	0.9443504007244263	-0.6028317280428402	0.0	1.029121836389269	-0.5585052816863671	0.0	1.0023033889433677	-0.6024011831129574	0.0	0.9304643688294869	-0.6123977619918534	0.0	0.9771218095726085	-0.6669102424067035	0.0	1.0353070817676928	-0.6863465774465157	0.0	0.9355921604735389	-0.6002130638716068	0.0	0.9799328456139138	-0.6517252193041698	0.0	1.0349098602297773	-0.6771414043915575	0.0
17	0.5721153846153846	0.783341686220832	-0.7136694388018198	0.0	0.77992008450193	-0.7188421416448054	0.0	0.7464723237333631	-0.8504337066164305	0.0	0.6910670639043197	-0.9486571788976559	0.0	0.7161881018111803	-0.9563503992275453	0.0	0.7190664225765906	-0.9507351505561652	0.0	0.6780782063684994	-0.946768476736793	0.0	0.784667965680209	-0.7117237456364413	0.0	0.7553332982338741	-0.8369681127638687	0.0	0.6980191129039495	-0.9386430406094686	0.0	0.7486271322000886	-0.9367156272290377	0.0	0.7561898030986312	-0.9089663792370395	0.0	0.6905956764194787	-0.9261819601525528	0.0	0.912706588478896	-0.6100791026655752	0.0	0.9933860998919116	-0.5581372651479458	0.0	0.9706538709885361	-0.6027007605583119	0.0	0.9034440536822581	-0.6201072614554795	0.0	0.9679664309239837	-0.652735532266825	0.0	1.0356243507680831	-0.6473556893528254	0.0	0.9031962700330991	-0.6101514024786389	0.0	0.9665795961078504	-0.6382306070219624	0.0	1.0316778627441145	-0.6411502605918211	0.0
18	0.6057692307692307	0.7729396263252641	-0.741275924610376	0.0	0.7697870798780078	-0.7446916314399171	0.0	0.7399060727950573	-0.8765453043633465	0.0	0.6883445523414646	-0.9716202664628537	0.0	0.7154084235478861	-0.969385346425282	0.0	0.719886905779204	-0.9626845315348794	0.0	0.6753168542054934	-0.9690056211921311	0.0	0.7741276332494512	-0.7395992741500043	0.0	0.7503567946961148	-0.8633329761701272	0.0	0.6959039142950147	-0.9627307592756713	0.0	0.7511179810024549	-0.9478267340560598	0.0	0.7570689868054237	-0.9263518260698679	0.0	0.6877694409148365	-0.9459465846305976	0.0	0.8858676889195998	-0.6124362209097992	0.0	0.9625727295302369	-0.5565155040437898	0.0	0.9431078493930218	-0.5995140374961133	0.0	0.8808722223907391	-0.6225171376526206	0.0	0.9537064923170241	-0.6304860709274014	0.0	1.0224758485230527	-0.6017324784917988	0.0	0.8756023189781658	-0.6154195275481121	0.0	0.949088125221362	-0.6179807704525898	0.0	1.0162360147694063	-0.5986744532229125	0.0
19	0.6394230769230769	0.7680151531298768	-0.7549326483932973	0.0	0.7654333472935595	-0.756854936912117	0.0	0.7364720697963956	-0.8861903077337502	0.0	0.6867533079028066	-0.9795450414654269	0.0	0.717210399605895	-0.97191482515351	0.0	0.7199289674917286	-0.9643865383071061	0.0	0.6736669494993363	-0.9783235455037096	0.0	0.7684573224425786	-0.7528290075827243	0.0	0.7469798055565464	-0.8734442509187524	0.0	0.694815473546965	-0.9705508927813074	0.0	0.7526629490089195	-0.9494180124571333	0.0	0.7552705575698072	-0.9371645366899186	0.0	0.6852024881186449	-0.9536548041559253	0.0	0.8656544178880408	-0.606884611214481	0.0	0.9386842536747461	-0.5485122847638404	0.0	0.9219229949234659	-0.5890334742077872	0.0	0.8640572196099692	-0.616671022847687	0.0	0.9370680190933705	-0.6016890640524032	0.0	1.0012272953802874	-0.5542982241824982	0.0	0.8552445239896296	-0.6125928855522859	0.0	0.9310378720308796	-0.5920145944542159	0.0	0.9942291360716705	-0.5540706657365184	0.0
